<svg width="15" height="27" viewBox="0 0 15 27" fill="none" xmlns="http://www.w3.org/2000/svg">
<mask id="path-1-inside-1_2005_119" fill="white">
<path fill-rule="evenodd" clip-rule="evenodd" d="M1.85274 0H7.44015H7.51216H13.0996C17.4654 10.6721 12.9379 14.0677 11.4826 15.0379C10.3184 15.814 8.84121 16.3315 8.24817 16.4932V25.5485H12.2894C12.6467 25.5485 12.9362 25.8381 12.9362 26.1953C12.9362 26.5525 12.6467 26.8421 12.2894 26.8421H2.91098C2.55376 26.8421 2.26418 26.5525 2.26418 26.1953C2.26418 25.8381 2.55376 25.5485 2.91098 25.5485H6.70414V16.4932C6.11109 16.3315 4.63394 15.814 3.46972 15.0379C2.01444 14.0677 -2.5131 10.6721 1.85274 0Z"/>
</mask>
<path d="M1.85274 0V-2H0.510037L0.00164529 -0.757266L1.85274 0ZM13.0996 0L14.9507 -0.757266L14.4423 -2H13.0996V0ZM11.4826 15.0379L10.3732 13.3738L10.3732 13.3738L11.4826 15.0379ZM8.24817 16.4932L7.72205 14.5636L6.24817 14.9655V16.4932H8.24817ZM8.24817 25.5485H6.24817V27.5485H8.24817V25.5485ZM6.70414 25.5485V27.5485H8.70414V25.5485H6.70414ZM6.70414 16.4932H8.70414V14.9655L7.23025 14.5636L6.70414 16.4932ZM3.46972 15.0379L4.57912 13.3738H4.57912L3.46972 15.0379ZM7.44015 -2H1.85274V2H7.44015V-2ZM7.51216 -2H7.44015V2H7.51216V-2ZM13.0996 -2H7.51216V2H13.0996V-2ZM12.592 16.702C13.4749 16.1134 15.3984 14.7084 16.3714 11.7896C17.3383 8.8888 17.2482 4.85893 14.9507 -0.757266L11.2485 0.757266C13.3168 5.81313 13.1458 8.81711 12.5766 10.5247C12.0134 12.2143 10.9456 12.9922 10.3732 13.3738L12.592 16.702ZM8.77428 18.4227C9.48757 18.2283 11.1866 17.6389 12.592 16.702L10.3732 13.3738C9.45011 13.9892 8.19486 14.4347 7.72205 14.5636L8.77428 18.4227ZM10.2482 25.5485V16.4932H6.24817V25.5485H10.2482ZM8.24817 27.5485H12.2894V23.5485H8.24817V27.5485ZM12.2894 27.5485C11.5421 27.5485 10.9362 26.9427 10.9362 26.1953H14.9362C14.9362 24.7335 13.7512 23.5485 12.2894 23.5485V27.5485ZM10.9362 26.1953C10.9362 25.448 11.5421 24.8421 12.2894 24.8421V28.8421C13.7512 28.8421 14.9362 27.6571 14.9362 26.1953H10.9362ZM12.2894 24.8421H2.91098V28.8421H12.2894V24.8421ZM2.91098 24.8421C3.65833 24.8421 4.26418 25.448 4.26418 26.1953H0.264184C0.264184 27.6571 1.44919 28.8421 2.91098 28.8421V24.8421ZM4.26418 26.1953C4.26418 26.9427 3.65833 27.5485 2.91098 27.5485V23.5485C1.44919 23.5485 0.264184 24.7335 0.264184 26.1953H4.26418ZM2.91098 27.5485H6.70414V23.5485H2.91098V27.5485ZM4.70414 16.4932V25.5485H8.70414V16.4932H4.70414ZM2.36032 16.702C3.76569 17.6389 5.46474 18.2283 6.17803 18.4227L7.23025 14.5636C6.75745 14.4347 5.5022 13.9892 4.57912 13.3738L2.36032 16.702ZM0.00164529 -0.757266C-2.29589 4.85893 -2.38599 8.8888 -1.41906 11.7896C-0.446134 14.7084 1.47741 16.1134 2.36032 16.702L4.57912 13.3738C4.00674 12.9922 2.93888 12.2143 2.37567 10.5247C1.80648 8.81711 1.63553 5.81313 3.70383 0.757266L0.00164529 -0.757266Z" fill="#4E4E4E" mask="url(#path-1-inside-1_2005_119)"/>
</svg>
