<svg width="15" height="27" viewBox="0 0 15 27" fill="none" xmlns="http://www.w3.org/2000/svg">
<path fill-rule="evenodd" clip-rule="evenodd" d="M1.85274 0H7.44015H7.51216H13.0996C17.4654 10.6721 12.9379 14.0677 11.4826 15.0379C10.3184 15.814 8.84121 16.3315 8.24817 16.4932V25.5485H12.2894C12.6467 25.5485 12.9362 25.8381 12.9362 26.1953C12.9362 26.5525 12.6467 26.8421 12.2894 26.8421H2.91098C2.55376 26.8421 2.26418 26.5525 2.26418 26.1953C2.26418 25.8381 2.55376 25.5485 2.91098 25.5485H6.70414V16.4932C6.11109 16.3315 4.63394 15.814 3.46972 15.0379C2.01444 14.0677 -2.5131 10.6721 1.85274 0Z" fill="#9D4E6D"/>
</svg>
